<svg xmlns="http://www.w3.org/2000/svg" width="168" height="46" viewBox="0 0 168 46" role="img" aria-labelledby="title">
  <title id="title">View Portfolio</title>
  <defs><linearGradient id="bg" x1="0" y1="0" x2="1" y2="1"><stop stop-color="#161b22"/><stop offset="1" stop-color="#0d1117"/></linearGradient><linearGradient id="accent" x1="0" x2="0" y2="1"><stop stop-color="#56d364"/><stop offset="1" stop-color="#2ea043"/></linearGradient></defs>
  <rect x=".5" y=".5" width="167" height="45" rx="10" fill="url(#bg)" stroke="#30363d"/><path d="M1 10.5A9.5 9.5 0 0 1 10.5 1H13v44h-2.5A9.5 9.5 0 0 1 1 35.5z" fill="url(#accent)"/>
  <circle cx="35" cy="23" r="12" fill="#39d353" fill-opacity=".11" stroke="#39d353" stroke-opacity=".35"/><path d="M27.5 19h15v10h-15zM31.5 19v-3h7v3M27.5 23h15" fill="none" stroke="#56d364" stroke-width="1.4" stroke-linejoin="round"/><path d="M33 22h4v3h-4z" fill="#56d364"/>
  <text x="55" y="19" fill="#8b949e" font-family="-apple-system,BlinkMacSystemFont,'Segoe UI',sans-serif" font-size="8.5" font-weight="600" letter-spacing="1">SELECTED WORK</text><text x="55" y="33" fill="#f0f6fc" font-family="-apple-system,BlinkMacSystemFont,'Segoe UI',sans-serif" font-size="13.5" font-weight="650">Portfolio</text><path d="m148 19 4 4-4 4M143 23h9" fill="none" stroke="#56d364" stroke-width="1.5" stroke-linecap="round" stroke-linejoin="round"/>
</svg>
